<mxfile host="app.diagrams.net" agent="Mozilla/5.0 (X11; Linux x86_64; rv:140.0) Gecko/20100101 Firefox/140.0" version="28.2.3">
  <diagram name="Page-1" id="BLSpzHqqTkUL27Ob7IEi">
    <mxGraphModel dx="1373" dy="766" grid="1" gridSize="10" guides="1" tooltips="1" connect="1" arrows="1" fold="1" page="1" pageScale="1" pageWidth="850" pageHeight="1100" background="#ffffff" math="0" shadow="0">
      <root>
        <mxCell id="0" />
        <mxCell id="1" parent="0" />
        <mxCell id="Sk8dXQY429Qg8NrAyqMG-1" value="&lt;div&gt;&lt;font style=&quot;font-size: 18px;&quot;&gt;startingHTMLElement&lt;/font&gt;&lt;/div&gt;" style="rounded=0;whiteSpace=wrap;html=1;" vertex="1" parent="1">
          <mxGeometry x="320" y="320" width="200" height="80" as="geometry" />
        </mxCell>
        <mxCell id="Sk8dXQY429Qg8NrAyqMG-6" value="" style="endArrow=none;html=1;rounded=0;dashed=1;dashPattern=8 8;" edge="1" parent="1">
          <mxGeometry width="50" height="50" relative="1" as="geometry">
            <mxPoint x="800" y="400" as="sourcePoint" />
            <mxPoint x="40" y="400" as="targetPoint" />
          </mxGeometry>
        </mxCell>
        <mxCell id="Sk8dXQY429Qg8NrAyqMG-7" value="" style="endArrow=none;html=1;rounded=0;dashed=1;dashPattern=8 8;" edge="1" parent="1">
          <mxGeometry width="50" height="50" relative="1" as="geometry">
            <mxPoint x="800" y="320" as="sourcePoint" />
            <mxPoint x="40" y="320" as="targetPoint" />
          </mxGeometry>
        </mxCell>
        <mxCell id="Sk8dXQY429Qg8NrAyqMG-8" value="" style="endArrow=none;html=1;rounded=0;dashed=1;dashPattern=8 8;" edge="1" parent="1">
          <mxGeometry width="50" height="50" relative="1" as="geometry">
            <mxPoint x="320" y="680" as="sourcePoint" />
            <mxPoint x="320" y="40" as="targetPoint" />
          </mxGeometry>
        </mxCell>
        <mxCell id="Sk8dXQY429Qg8NrAyqMG-9" value="" style="endArrow=none;html=1;rounded=0;dashed=1;shadow=0;dashPattern=8 8;" edge="1" parent="1">
          <mxGeometry width="50" height="50" relative="1" as="geometry">
            <mxPoint x="520" y="680" as="sourcePoint" />
            <mxPoint x="520" y="40" as="targetPoint" />
          </mxGeometry>
        </mxCell>
        <mxCell id="Sk8dXQY429Qg8NrAyqMG-11" value="e(ast)" style="text;html=1;align=center;verticalAlign=middle;whiteSpace=wrap;rounded=0;" vertex="1" parent="1">
          <mxGeometry x="670" y="345" width="60" height="30" as="geometry" />
        </mxCell>
        <mxCell id="Sk8dXQY429Qg8NrAyqMG-12" value="&lt;b&gt;n(orth)&lt;/b&gt;" style="text;html=1;align=center;verticalAlign=middle;whiteSpace=wrap;rounded=0;" vertex="1" parent="1">
          <mxGeometry x="390" y="90" width="60" height="30" as="geometry" />
        </mxCell>
        <mxCell id="Sk8dXQY429Qg8NrAyqMG-13" value="&lt;div&gt;&lt;b&gt;n(orth)e(ast)&lt;/b&gt;&lt;/div&gt;" style="text;html=1;align=center;verticalAlign=middle;whiteSpace=wrap;rounded=0;" vertex="1" parent="1">
          <mxGeometry x="610" y="120" width="60" height="30" as="geometry" />
        </mxCell>
        <mxCell id="Sk8dXQY429Qg8NrAyqMG-14" value="&lt;b&gt;s(outh)e(ast)&lt;/b&gt;" style="text;html=1;align=center;verticalAlign=middle;whiteSpace=wrap;rounded=0;" vertex="1" parent="1">
          <mxGeometry x="610" y="535" width="60" height="30" as="geometry" />
        </mxCell>
        <mxCell id="Sk8dXQY429Qg8NrAyqMG-15" value="&lt;b&gt;s(outh)&lt;/b&gt;" style="text;html=1;align=center;verticalAlign=middle;whiteSpace=wrap;rounded=0;" vertex="1" parent="1">
          <mxGeometry x="390" y="600" width="70" height="50" as="geometry" />
        </mxCell>
        <mxCell id="Sk8dXQY429Qg8NrAyqMG-16" value="&lt;b&gt;s(outh)w(est)&lt;/b&gt;" style="text;html=1;align=center;verticalAlign=middle;whiteSpace=wrap;rounded=0;" vertex="1" parent="1">
          <mxGeometry x="170" y="535" width="60" height="30" as="geometry" />
        </mxCell>
        <mxCell id="Sk8dXQY429Qg8NrAyqMG-17" value="&lt;b&gt;w(est)&lt;/b&gt;" style="text;html=1;align=center;verticalAlign=middle;whiteSpace=wrap;rounded=0;" vertex="1" parent="1">
          <mxGeometry x="110" y="345" width="60" height="30" as="geometry" />
        </mxCell>
        <mxCell id="Sk8dXQY429Qg8NrAyqMG-18" value="&lt;b&gt;n(orth)w(est)&lt;/b&gt;" style="text;html=1;align=center;verticalAlign=middle;whiteSpace=wrap;rounded=0;" vertex="1" parent="1">
          <mxGeometry x="170" y="120" width="60" height="30" as="geometry" />
        </mxCell>
      </root>
    </mxGraphModel>
  </diagram>
</mxfile>
